<svg version="1" xmlns="http://www.w3.org/2000/svg" width="170.667" height="170.667" viewBox="0 0 128.000000 128.000000"><path d="M53.5 6.4c-1.9 1.1-3.9 3.3-4.6 4.9-1.9 4.5-1.5 11.7.9 16.3 3.5 6.8 3.5 9.1.1 11.4-2.7 2-12.1 19.5-13.8 25.9-.7 2.5-.7 2.5-15 2.6-12.8.1-14.5.3-15.7 2-2 2.7-1.8 3.1 2.4 7.4 4.7 4.7 11.3 13.9 10.4 14.4-.4.2-3.5.3-6.9.2-3.5 0-6.4.1-6.4.4-.1.4-.2 7.5-.3 15.9-.1 12.9.1 15.5 1.4 16.1 1.1.5 107.6.7 117.2.2 1.4-.1 1.6-1.9 1.6-16 .1-17.2.2-16.8-5.6-16.6-2.6.1-3.1-.2-2.6-1.5.4-.8 1.4-3.9 2.2-6.9.9-3 2.7-6.5 3.9-7.7 2.8-2.8 2.9-3.8.5-6.2-1.6-1.6-3.7-1.8-18.4-1.7-14.8 0-16.5-.1-15.5-1.5 1.8-2.3 3-3 5.3-3 2.1 0 2.8-1 4.4-6 .6-2.1.2-3.1-2.1-5.4-2.6-2.7-3-2.8-5.1-1.4-3.4 2.2-12.9 1.4-17.3-1.4-1.9-1.3-3.3-2.7-3.2-3.3.2-.5-1.5-2.3-3.7-3.9-6.1-4.3-6.5-4.9-2.9-4.1 3.7.7 6.9-.7 7.8-3.5.3-1.1 1.3-2 2.1-2 1.6 0 1.8-1.8.5-3.9-.6-1-.5-2.7.5-4.9 2.3-5.6 1.8-9.7-1.7-13.7-5-5.6-13.6-7-20.4-3.1zm18 49.6c3.3 2.3 5.5 3 8.9 3 2.5 0 4.6.3 4.6.7 0 .4-1.8 2.3-3.9 4.4-3.6 3.3-4.5 3.6-8.8 3.4-2.6-.1-6.7-.5-9-.9-4-.7-4.3-.9-3.6-3.4 1.3-5.3 3.3-9.1 5-9.5 1-.3 1.9-.5 2.1-.6.2 0 2.3 1.2 4.7 2.9z"/></svg>